<svg width="102" height="99" viewBox="0 0 102 99" fill="none" xmlns="http://www.w3.org/2000/svg">
<path d="M38.0324 6.3629C35.1171 5.01196 32.8838 4.06584 29.731 4.06584C28.6005 4.06584 27.1037 3.8052 26.0476 4.32107C20.578 6.9929 15.0782 9.09789 10.9403 13.9733C9.19698 16.0273 6.97672 18.3402 6.05841 20.9805C4.97004 24.1098 4.26079 27.0467 4.0353 30.3776C3.65049 36.062 6.40428 43.5445 12.6665 43.7307C21.658 43.9979 29.5187 37.9685 33.7882 29.9599C34.6982 28.253 35.7351 26.6239 36.1632 24.6929C36.6101 22.6769 36.9803 20.759 37.6365 18.7995C38.7086 15.5982 39.3443 12.2335 40.3633 9.00799C40.4742 8.65696 40.6007 7.60788 40.8031 8.59035C41.3552 11.2699 41.0011 14.3074 41.0011 17.0245C41.0011 25.3233 41.0011 33.6221 41.0011 41.9209C41.0011 48.7971 40.722 55.6383 40.1654 62.49C39.879 66.0157 39.5147 69.5177 39.0659 73.0239C38.6567 76.2209 38.629 79.5252 37.9444 82.6762C37.4399 84.9984 36.4593 87.0434 35.1956 88.9989C34.1618 90.5988 33.1566 92.5555 31.5342 93.5698C29.4201 94.8917 24.4428 95.7961 22.3532 93.9759C19.4528 91.4494 18.6399 88.1658 18.373 84.3004C18.1575 81.1795 18.0869 77.8852 18.8898 74.8453C19.7142 71.7242 20.9814 68.6068 22.4412 65.7615C25.4579 59.8819 30.3015 55.3017 33.9202 49.8446C36.554 45.8727 38.8575 41.7178 41.3309 37.64C43.03 34.8388 44.9922 32.2482 46.6306 29.4031C49.0525 25.1973 51.6738 21.0499 54.2612 16.9549C55.3329 15.2587 56.6144 13.7317 57.6587 12.0127C58.5293 10.5797 58.5745 13.75 58.6043 14.101C59.313 22.4508 58.8132 30.9967 58.8132 39.3802C58.8132 39.9858 58.4152 42.7131 59.0771 40.7375C60.0632 37.7946 61.3735 34.9296 62.6395 32.1178C64.7909 27.3395 66.9751 22.5172 69.7424 18.0918C70.9889 16.0985 71.7741 15.0949 73.2609 13.4629C73.3759 13.3366 74.8584 11.4815 75.4819 11.7227C75.9902 11.9194 76.3359 13.4348 76.4275 13.7761C76.9716 15.8034 77.2257 17.9262 77.505 20.006C78.1079 24.4958 78.058 29.3988 79.2862 33.7652C79.3856 34.1184 79.5097 34.4651 79.6601 34.7977C79.8639 35.2487 79.9896 35.529 80.1988 34.9369C80.7381 33.4111 80.9847 31.6462 81.3753 30.0759C82.9712 23.6606 83.3897 16.6218 86.4441 10.7134C86.9336 9.76638 87.0141 10.5485 87.2577 11.3863C88.6543 16.1889 88.9901 21.2758 89.5777 26.2359C89.6787 27.0887 91.5906 40.2394 93.2941 39.125C94.5627 38.295 95.5177 35.8913 96.1748 34.554C96.7884 33.3055 97.4062 32.0484 98 30.7952" stroke="white" stroke-width="8" stroke-linecap="round"/>
</svg>
